<svg width="15" height="15" viewBox="0 0 15 15" fill="none" xmlns="http://www.w3.org/2000/svg">
<path fill-rule="evenodd" clip-rule="evenodd" d="M6.13686 10.5737C8.58727 10.5737 10.5737 8.58727 10.5737 6.13686C10.5737 3.68645 8.58727 1.7 6.13686 1.7C3.68645 1.7 1.7 3.68645 1.7 6.13686C1.7 8.58727 3.68645 10.5737 6.13686 10.5737ZM6.13686 12.2737C9.52616 12.2737 12.2737 9.52616 12.2737 6.13686C12.2737 2.74757 9.52616 0 6.13686 0C2.74757 0 0 2.74757 0 6.13686C0 9.52616 2.74757 12.2737 6.13686 12.2737Z" fill="black"/>
<path fill-rule="evenodd" clip-rule="evenodd" d="M9.9194 9.91929C9.58745 10.2512 9.58745 10.7894 9.9194 11.1214L12.3991 13.601C12.731 13.933 13.2692 13.933 13.6011 13.601C13.9331 13.2691 13.9331 12.7309 13.6011 12.399L11.1215 9.91929C10.7895 9.58735 10.2513 9.58735 9.9194 9.91929Z" fill="black"/>
</svg>
